<?xml version="1.0" encoding="UTF-8"?> <svg xmlns="http://www.w3.org/2000/svg" width="149" height="46" viewBox="0 0 149 46" fill="none"> <path d="M27.6144 15.0027L35.2046 22.5807L27.6144 30.128L45.4173 22.5807L27.6144 15.0027Z" fill="url(#paint0_linear)"></path> <path d="M31.718 8.89722L0 22.5806L31.718 36.264L17.9262 22.5806L31.718 8.89722Z" fill="url(#paint1_linear)"></path> <path d="M27.6144 30.1279L32.6437 35.2515L45.4173 22.5806L27.6144 30.1279Z" fill="url(#paint2_linear)"></path> <path d="M27.6144 15.0028L45.4173 22.5808L32.6437 9.90991L27.6144 15.0028Z" fill="url(#paint3_linear)"></path> <path d="M22.7703 45.1612L31.718 36.2639L0 22.5806L22.7703 45.1612Z" fill="url(#paint4_linear)"></path> <path d="M22.7703 0L0 22.5806L31.718 8.89727L22.7703 0Z" fill="url(#paint5_linear)"></path> <path d="M0 22.5806H17.9262L31.718 36.2639L0 22.5806Z" fill="url(#paint6_linear)"></path> <path d="M35.2045 22.5806H45.4172L27.6453 30.0972L35.2045 22.5806Z" fill="url(#paint7_linear)"></path> <path d="M64.12 15.79H58.515V19.514H63.93V21.604H58.515V27H56.33V13.7H64.12V15.79ZM68.463 19.096C68.9823 17.918 69.9577 17.329 71.389 17.329V19.552C70.6037 19.5013 69.9197 19.6913 69.337 20.122C68.7543 20.54 68.463 21.2367 68.463 22.212V27H66.411V17.5H68.463V19.096ZM74.4548 23.124C74.6068 23.846 74.9551 24.4033 75.4998 24.796C76.0445 25.176 76.7095 25.366 77.4948 25.366C78.5841 25.366 79.4011 24.9733 79.9458 24.188L81.6368 25.176C80.6995 26.5567 79.3125 27.247 77.4758 27.247C75.9305 27.247 74.6828 26.7783 73.7328 25.841C72.7828 24.891 72.3078 23.694 72.3078 22.25C72.3078 20.8313 72.7765 19.647 73.7138 18.697C74.6511 17.7343 75.8545 17.253 77.3238 17.253C78.7171 17.253 79.8571 17.7407 80.7438 18.716C81.6431 19.6913 82.0928 20.8757 82.0928 22.269C82.0928 22.4843 82.0675 22.7693 82.0168 23.124H74.4548ZM74.4358 21.452H80.0218C79.8825 20.6793 79.5595 20.0967 79.0528 19.704C78.5588 19.3113 77.9761 19.115 77.3048 19.115C76.5448 19.115 75.9115 19.324 75.4048 19.742C74.8981 20.16 74.5751 20.73 74.4358 21.452ZM85.7503 20.122C85.7503 20.4387 85.9213 20.692 86.2633 20.882C86.618 21.0593 87.0423 21.2177 87.5363 21.357C88.043 21.4837 88.5496 21.6357 89.0563 21.813C89.563 21.9903 89.9873 22.2943 90.3293 22.725C90.684 23.143 90.8613 23.675 90.8613 24.321C90.8613 25.233 90.5066 25.9487 89.7973 26.468C89.1006 26.9873 88.2203 27.247 87.1563 27.247C86.219 27.247 85.4146 27.0507 84.7433 26.658C84.072 26.2653 83.5843 25.7207 83.2803 25.024L85.0473 23.998C85.3766 24.91 86.0796 25.366 87.1563 25.366C88.233 25.366 88.7713 25.0113 88.7713 24.302C88.7713 23.998 88.594 23.751 88.2393 23.561C87.8973 23.371 87.473 23.2127 86.9663 23.086C86.4723 22.9467 85.972 22.7883 85.4653 22.611C84.9586 22.4337 84.528 22.1423 84.1733 21.737C83.8313 21.319 83.6603 20.7933 83.6603 20.16C83.6603 19.286 83.9896 18.583 84.6483 18.051C85.3196 17.519 86.1493 17.253 87.1373 17.253C87.9226 17.253 88.6193 17.4303 89.2273 17.785C89.848 18.127 90.323 18.6083 90.6523 19.229L88.9233 20.198C88.594 19.476 87.9986 19.115 87.1373 19.115C86.7446 19.115 86.4153 19.2037 86.1493 19.381C85.8833 19.5457 85.7503 19.7927 85.7503 20.122ZM97.9308 17.253C99.0201 17.253 99.9005 17.6013 100.572 18.298C101.243 18.9947 101.579 19.951 101.579 21.167V27H99.5268V21.376C99.5268 20.6667 99.3368 20.122 98.9568 19.742C98.5768 19.362 98.0575 19.172 97.3988 19.172C96.6768 19.172 96.0941 19.4 95.6508 19.856C95.2075 20.2993 94.9858 20.9833 94.9858 21.908V27H92.9338V13.7H94.9858V18.716C95.6065 17.7407 96.5881 17.253 97.9308 17.253ZM108.652 27.247C107.221 27.247 106.024 26.7657 105.061 25.803C104.111 24.8403 103.636 23.656 103.636 22.25C103.636 20.8313 104.111 19.647 105.061 18.697C106.024 17.7343 107.221 17.253 108.652 17.253C109.577 17.253 110.419 17.4747 111.179 17.918C111.939 18.3613 112.509 18.9567 112.889 19.704L111.122 20.73C110.907 20.274 110.578 19.9193 110.134 19.666C109.704 19.4 109.203 19.267 108.633 19.267C107.797 19.267 107.094 19.552 106.524 20.122C105.967 20.692 105.688 21.4013 105.688 22.25C105.688 23.0987 105.967 23.808 106.524 24.378C107.094 24.948 107.797 25.233 108.633 25.233C109.191 25.233 109.691 25.1 110.134 24.834C110.59 24.568 110.932 24.2133 111.16 23.77L112.927 24.777C112.522 25.537 111.939 26.1387 111.179 26.582C110.419 27.0253 109.577 27.247 108.652 27.247ZM119.33 27.247C117.937 27.247 116.752 26.7657 115.777 25.803C114.802 24.8403 114.314 23.656 114.314 22.25C114.314 20.844 114.802 19.6597 115.777 18.697C116.752 17.7343 117.937 17.253 119.33 17.253C120.736 17.253 121.92 17.7343 122.883 18.697C123.858 19.6597 124.346 20.844 124.346 22.25C124.346 23.656 123.858 24.8403 122.883 25.803C121.92 26.7657 120.736 27.247 119.33 27.247ZM117.221 24.397C117.791 24.967 118.494 25.252 119.33 25.252C120.166 25.252 120.869 24.967 121.439 24.397C122.009 23.827 122.294 23.1113 122.294 22.25C122.294 21.3887 122.009 20.673 121.439 20.103C120.869 19.533 120.166 19.248 119.33 19.248C118.494 19.248 117.791 19.533 117.221 20.103C116.651 20.673 116.366 21.3887 116.366 22.25C116.366 23.1113 116.651 23.827 117.221 24.397ZM134.106 13.7H136.158V27H134.106V25.632C133.333 26.7087 132.225 27.247 130.781 27.247C129.476 27.247 128.361 26.7657 127.437 25.803C126.512 24.8277 126.05 23.6433 126.05 22.25C126.05 20.844 126.512 19.6597 127.437 18.697C128.361 17.7343 129.476 17.253 130.781 17.253C132.225 17.253 133.333 17.785 134.106 18.849V13.7ZM128.957 24.435C129.527 25.005 130.242 25.29 131.104 25.29C131.965 25.29 132.681 25.005 133.251 24.435C133.821 23.8523 134.106 23.124 134.106 22.25C134.106 21.376 133.821 20.654 133.251 20.084C132.681 19.5013 131.965 19.21 131.104 19.21C130.242 19.21 129.527 19.5013 128.957 20.084C128.387 20.654 128.102 21.376 128.102 22.25C128.102 23.124 128.387 23.8523 128.957 24.435ZM140.544 23.124C140.696 23.846 141.045 24.4033 141.589 24.796C142.134 25.176 142.799 25.366 143.584 25.366C144.674 25.366 145.491 24.9733 146.035 24.188L147.726 25.176C146.789 26.5567 145.402 27.247 143.565 27.247C142.02 27.247 140.772 26.7783 139.822 25.841C138.872 24.891 138.397 23.694 138.397 22.25C138.397 20.8313 138.866 19.647 139.803 18.697C140.741 17.7343 141.944 17.253 143.413 17.253C144.807 17.253 145.947 17.7407 146.833 18.716C147.733 19.6913 148.182 20.8757 148.182 22.269C148.182 22.4843 148.157 22.7693 148.106 23.124H140.544ZM140.525 21.452H146.111C145.972 20.6793 145.649 20.0967 145.142 19.704C144.648 19.3113 144.066 19.115 143.394 19.115C142.634 19.115 142.001 19.324 141.494 19.742C140.988 20.16 140.665 20.73 140.525 21.452Z" fill="#FFF8F8"></path> <defs> <linearGradient id="paint0_linear" x1="36.5166" y1="30.1366" x2="36.5166" y2="15.0169" gradientUnits="userSpaceOnUse"> <stop stop-color="#00DCA4"></stop> <stop offset="0.1503" stop-color="#00D59E"></stop> <stop offset="0.3658" stop-color="#00C28E"></stop> <stop offset="0.6206" stop-color="#00A375"></stop> <stop offset="0.9033" stop-color="#007851"></stop> <stop offset="1" stop-color="#006843"></stop> </linearGradient> <linearGradient id="paint1_linear" x1="15.8641" y1="36.2662" x2="15.8641" y2="8.88715" gradientUnits="userSpaceOnUse"> <stop stop-color="#00C3E6"></stop> <stop offset="0.2433" stop-color="#00B9DC"></stop> <stop offset="0.6556" stop-color="#009EC1"></stop> <stop offset="1" stop-color="#0083A6"></stop> </linearGradient> <linearGradient id="paint2_linear" x1="45.4149" y1="28.9083" x2="27.6186" y2="28.9083" gradientUnits="userSpaceOnUse"> <stop stop-color="#A1FFD7"></stop> <stop offset="1" stop-color="#00FFAF"></stop> </linearGradient> <linearGradient id="paint3_linear" x1="39.0438" y1="16.245" x2="33.9775" y2="21.3401" gradientUnits="userSpaceOnUse"> <stop stop-color="#A1FFD7"></stop> <stop offset="1" stop-color="#00FFAF"></stop> </linearGradient> <linearGradient id="paint4_linear" x1="20.355" y1="24.9571" x2="11.4239" y2="33.9389" gradientUnits="userSpaceOnUse"> <stop stop-color="#B5FFFF"></stop> <stop offset="1" stop-color="#00ECFF"></stop> </linearGradient> <linearGradient id="paint5_linear" x1="31.7281" y1="11.2897" x2="0" y2="11.2897" gradientUnits="userSpaceOnUse"> <stop stop-color="#B5FFFF"></stop> <stop offset="1" stop-color="#00ECFF"></stop> </linearGradient> <linearGradient id="paint6_linear" x1="17.1029" y1="22.4366" x2="15.1866" y2="33.3659" gradientUnits="userSpaceOnUse"> <stop stop-color="#00C3E6"></stop> <stop offset="0.5023" stop-color="#00C1E4"></stop> <stop offset="0.7034" stop-color="#00BBDD"></stop> <stop offset="0.8505" stop-color="#00B1D1"></stop> <stop offset="0.9705" stop-color="#00A2C0"></stop> <stop offset="1" stop-color="#009DBA"></stop> </linearGradient> <linearGradient id="paint7_linear" x1="35.1582" y1="22.5908" x2="36.6938" y2="26.8338" gradientUnits="userSpaceOnUse"> <stop stop-color="#14D5A4"></stop> <stop offset="0.3907" stop-color="#12D2A1"></stop> <stop offset="0.7334" stop-color="#0AC996"></stop> <stop offset="0.9948" stop-color="#00BE88"></stop> </linearGradient> </defs> </svg> 